<?xml version="1.0" standalone="no"?><!DOCTYPE svg PUBLIC "-//W3C//DTD SVG 1.1//EN" "http://www.w3.org/Graphics/SVG/1.1/DTD/svg11.dtd"><svg class="icon" width="200px" height="197.87px" viewBox="0 0 1035 1024" version="1.1" xmlns="http://www.w3.org/2000/svg"><path d="M434.3466272 454.03082027c-119.754624 48.591536-195.20212693 163.01676587-228.53696534 248.18257493l-151.52199253-39.50021547c-5.7473856-1.46297067-11.18127787-0.94048107-16.0926816 1.0449792-12.95774293 5.32939413-20.79508693 20.58609173-12.3307552 32.91684694l90.70420053 131.0404 26.2289792 157.16488106c2.50794987 14.62970987 18.70512853 20.27259733 31.7673696 15.04770134 4.80690453-1.98546027 9.1958176-5.43389227 12.22625814-10.44979307L267.98592853 855.40735573c83.18034987 37.93274773 217.04219307 67.29666453 336.79681707 18.70512854 183.08036693-74.2980256 263.23027733-302.5214976 246.19711466-344.52966294C833.94669866 487.57465493 617.32249706 379.73279467 434.3466272 454.03082027z m154.9704256 381.93992106c-103.03495573 41.79917013-224.67054187 18.18263893-303.98446827-17.97364266l-33.54383467-15.2566976-19.12312 31.55837333-57.16036586 94.2571296L157.53162026 820.7140448l-1.46297066-9.09132053-5.22489707-7.52385067L88.5629888 714.3351552l106.69238293 27.796448 35.7382912 9.30031573 13.3757344-34.3798176c31.7673696-81.29938667 102.30346987-182.9758688 205.44292373-224.87953813 150.4770144-61.13128747 332.407904 19.75010773 362.18981227 53.0849472 1.8809632 44.72511253-72.2080672 229.58194453-222.68508053 290.71323093z m19.959104-241.59920533c-15.88368533 6.47887147-23.51203307 24.4525152-17.1376608 40.33619947 6.37437333 15.7791872 24.55701227 23.407536 40.33620053 16.92866346 15.88368533-6.47887147 23.51203307-24.4525152 17.13765973-40.33619946-6.37437333-15.88368533-24.4525152-23.407536-40.33619946-16.92866347z m0 0" fill="#da3e53" /><path d="M612.4110944 472.004464c-75.02951147 0-136.16079787-61.02678933-136.16079787-136.16079893 0-75.02951147 61.02678933-136.16079787 136.16079787-136.16079787S748.57189226 260.81415467 748.57189226 335.84366507c0 75.1340096-61.13128747 136.16079787-136.16079786 136.16079893z m0-230.52242667c-52.03996693 0-94.36162773 42.32165973-94.36162774 94.36162774s42.32165973 94.36162773 94.36162774 94.36162773 94.36162773-42.32165973 94.36162773-94.36162773-42.42615787-94.36162773-94.36162773-94.36162774z" fill="#da3e53" /><path d="M632.970016 208.2830464L871.57849173-34.13333333l29.7902688 29.3221184L662.7602848 237.6051648z" fill="#da3e53" /><path d="M714.85981653 302.04485653l328.81317547-254.36258346 25.576912 33.06314453-328.81317547 254.3625824z" fill="#da3e53" /></svg>